<svg width="60" height="28" viewBox="0 0 60 28" fill="none" xmlns="http://www.w3.org/2000/svg">
<path d="M19.1731 27.0291C17.0248 27.8715 14.7014 28.1726 12.4086 27.9055C10.1158 27.6384 7.92445 26.8115 6.02862 25.498C4.13278 24.1845 2.591 22.425 1.53983 20.3752C0.488659 18.3255 -0.0394445 16.0488 0.00229532 13.7469C0.0440351 11.4449 0.65433 9.18877 1.77912 7.17827C2.90391 5.16777 4.50848 3.46496 6.45069 2.22069C8.39291 0.976417 10.6128 0.229082 12.9138 0.0448823C15.2148 -0.139317 17.5258 0.245305 19.6421 1.16468L17.5778 5.89162C16.2409 5.31083 14.7809 5.06786 13.3274 5.18422C11.8738 5.30058 10.4714 5.77269 9.24448 6.55873C8.01754 7.34477 7.0039 8.42047 6.29334 9.69055C5.58278 10.9606 5.19724 12.3859 5.17088 13.8401C5.14451 15.2943 5.47812 16.7325 6.14217 18.0274C6.80622 19.3223 7.7802 20.4338 8.97785 21.2636C10.1755 22.0933 11.5598 22.6157 13.0082 22.7844C14.4566 22.9531 15.9244 22.763 17.2815 22.2308L19.1731 27.0291Z" fill="#1E1E1E"/>
<path d="M52.6381 14C50.7016 14 48.9484 14.7822 47.6786 16.047L52.6162 3.1759e-06H47.1101L38.6013 27.6533V28H44.0007L45.7458 22.3283C46.3681 25.5591 49.2173 28 52.6381 28C55.8579 28 58.5714 25.8374 59.3979 22.8891C60.5263 19.818 59.8529 16.4512 59.1301 14C58.8157 12.934 57.8018 10.5548 56.7083 8.1048L53.5075 2.024L51.3324 9.18612L53.9284 14.1181C53.5102 14.0405 53.0789 14 52.6381 14Z" fill="#1E1E1E"/>
<path d="M28.0736 14C30.0101 14 31.7633 13.2178 33.0331 11.953L28.0955 28H33.6016L42.1104 0.346738V3.23049e-06H36.711L34.9659 5.67173C34.3436 2.44092 31.4944 3.23049e-06 28.0736 3.23049e-06C24.1975 3.23049e-06 21.0552 3.13401 21.0552 7C21.0552 10.866 24.1975 14 28.0736 14Z" fill="#1E1E1E"/>
</svg>
